#tb 0: 1/1000
0,          0,          0,        0,    61206, 610cef52d35e9c641f2b8c10489c3d12
0,         33,         33,        0,    61206, 1f84062e607d4798b0544739fe0da99c
0,         66,         66,        0,    61206, ea379947b5c52ea3989dfc3f47c729d9
0,        100,        100,        0,    61206, 1d06b72f06178cbb6bb5d188d22bff43
0,        133,        133,        0,    61206, 25bd41bd7607f88a01aa0cdc336c9975
0,        166,        166,        0,    61206, 86836a95a7a9fb1eefb20f7c5a15a9ab
0,        200,        200,        0,    61206, d8eb3fecce1b646b9877cd4fcca9f9bf
0,        233,        233,        0,    61206, a057e0b29e4ac9717452cc478c418c12
0,        266,        266,        0,    61206, 9a3bab91b4f0fff174536b1609c9632c
0,        300,        300,        0,    61206, d1cd93975f746b6cae490aae31f89e7e
